<svg xmlns="http://www.w3.org/2000/svg" viewBox="0 0 1024 1024" width="1024" height="1024" role="img" aria-label="ZonePit App-Icon"><title>ZonePit</title><clipPath id="r"><rect width="1024" height="1024" rx="228"/></clipPath><g clip-path="url(#r)"><title>ZonePit</title><rect width="1024" height="1024" fill="#12161B"/><rect x="166" y="229" width="330" height="94" rx="18" fill="#FF5B1F"/><rect x="572" y="229" width="286" height="94" rx="18" fill="#FF5B1F"/><rect x="312" y="347" width="136" height="94" rx="18" fill="#FF7A47"/><rect x="572" y="347" width="110" height="94" rx="18" fill="#FF7A47"/><rect x="748" y="347" width="110" height="94" rx="18" fill="#FF7A47"/><rect x="263" y="465" width="136" height="94" rx="18" fill="#FFB089"/><rect x="572" y="465" width="286" height="94" rx="18" fill="#FFB089"/><rect x="214" y="583" width="136" height="94" rx="18" fill="#F2EFEA"/><rect x="572" y="583" width="110" height="94" rx="18" fill="#F2EFEA"/><rect x="166" y="701" width="330" height="94" rx="18" fill="#9AA1AA"/><rect x="572" y="701" width="110" height="94" rx="18" fill="#9AA1AA"/></g></svg>